# xmcd
# 
# Track frame offsets:
#     150
#     17225
#     40787
#     57532
#     77461
#     93524
#     111288
#     136394
#     155783
#     173913
#     192362
#     207992
#     225051
#     234944
#     253362
#     272066
# 
# Disc length: 3879
# 
# Revision: 2
# Processed by: cddbd v1.5.2PL0 Copyright (c) Steve Scherf et al.
# Submitted via: fre:ac v1.0.31
# 
DISCID=d90f2510
DTITLE=張國榮 - 張國榮 GREATEST HITS UPM 24KCD
DYEAR=2016
DGENRE=
TTITLE0=儂本多情 (TVB電視劇"儂本多情"主題曲)
TTITLE1=風繼續吹
TTITLE2=一片痴
TTITLE3=片段
TTITLE4=緣份 (梅艷芳合唱) (電影"緣份"主題曲)
TTITLE5=有誰共鳴
TTITLE6=全賴有你
TTITLE7=當年情 (電影"英雄本色"主題曲)
TTITLE8=只怕不再遇上
TTITLE9=為妳鍾情
TTITLE10=默默向上游 (電影"鼓手"插曲)
TTITLE11=迷路 (TVB電視劇"老洞"主題曲)
TTITLE12=那一記耳光
TTITLE13=我願意
TTITLE14=情自困
TTITLE15=愛慕
EXTD=
EXTT0=
EXTT1=
EXTT2=
EXTT3=
EXTT4=
EXTT5=
EXTT6=
EXTT7=
EXTT8=
EXTT9=
EXTT10=
EXTT11=
EXTT12=
EXTT13=
EXTT14=
EXTT15=
PLAYORDER=
